<svg xmlns="http://www.w3.org/2000/svg" viewBox="0 0 512 512" ><path d="M254.026 308.591a48.006 48.006 0 0 1 47.069 48v112.164h58.06a45.864 45.864 0 0 0 45.863-45.863V236.761L253.09 86.052V308.6c.31 0 .622-.015.936-.009z" style="fill:#f2f2f2"/><path style="fill:#ccc" d="M405.018 303.219v-66.458L253.09 86.052v65.24l151.928 151.927z"/><path style="fill:#ff7b69" d="m453.147 308.544 32.62-32.62L253.09 43.246v65.24l200.057 200.058z"/><path d="m20.412 275.924 32.62 32.62 48.13-48.131v162.479a45.863 45.863 0 0 0 45.862 45.863h58.06v-111.22c0-26.6 21.522-48.917 48.006-48.937V43.246z" style="fill:#fff"/><path d="M248.826 302.929a53.714 53.714 0 0 0-10.121 1.777 5.821 5.821 0 0 0 1.549 11.431c3.153-.409 6.246-1.5 9.481-1.6 7.632-.79 6.765-12.025-.909-11.608zM199.264 388.725v21.826c.193 7.67 11.446 7.68 11.641 0v-21.826c-.193-7.67-11.446-7.68-11.641 0zM216.957 334.8c3.8-6.662-5.822-12.494-9.963-6.022a53.176 53.176 0 0 0-7.524 23.071 5.82 5.82 0 1 0 11.6 1.011 41.623 41.623 0 0 1 5.887-18.06zM101.162 386.29a5.82 5.82 0 0 0 5.82-5.82v-21.826c-.192-7.67-11.445-7.68-11.64 0v21.826a5.82 5.82 0 0 0 5.82 5.82zM179.5 468.754a5.821 5.821 0 0 0 5.821 5.82h19.767a5.82 5.82 0 0 0 5.82-5.82v-21.826c-.194-7.67-11.445-7.681-11.641 0v16.006h-13.949a5.821 5.821 0 0 0-5.818 5.82zM101.162 294.621a5.82 5.82 0 0 0-5.82 5.82v21.826c.192 7.67 11.445 7.68 11.64 0v-21.826a5.82 5.82 0 0 0-5.82-5.82zM147.024 462.934a39.705 39.705 0 0 1-16.835-3.7 5.82 5.82 0 1 0-4.9 10.558 51.246 51.246 0 0 0 21.736 4.781h1.917a5.82 5.82 0 1 0 0-11.64zM106.982 416.846c-.192-7.669-11.445-7.68-11.64 0-.2 7.852.2 16.123 3.017 23.483 2.8 7.18 13.364 3.338 10.958-3.928-2.358-6.034-2.469-13.111-2.335-19.555zM207.819 80.286l-15.433 15.433c-5.289 5.561 2.665 13.523 8.231 8.23l15.433-15.433c5.288-5.557-2.663-13.524-8.231-8.23zM218.838 142.739a5.819 5.819 0 0 0-8.232 0l-15.433 15.433c-5.288 5.561 2.665 13.523 8.232 8.23l15.433-15.433a5.819 5.819 0 0 0 0-8.23zM125.508 162.6l-15.434 15.434a5.82 5.82 0 0 0 8.232 8.23l15.434-15.434c5.287-5.56-2.663-13.53-8.232-8.23zM87.14 266.205l-15.433 15.433a5.82 5.82 0 0 0 8.232 8.23l15.433-15.433c5.286-5.558-2.661-13.524-8.232-8.23zM128.3 225.049l-15.434 15.433a5.82 5.82 0 1 0 8.23 8.231l15.434-15.433c5.285-5.558-2.664-13.523-8.23-8.231zM43.2 244.909l-15.436 15.433c-5.288 5.56 2.665 13.523 8.231 8.23l15.433-15.433c5.288-5.557-2.66-13.524-8.228-8.23zM84.354 203.753 68.92 219.186a5.82 5.82 0 1 0 8.23 8.231l15.434-15.433c5.288-5.557-2.661-13.524-8.23-8.231zM30.552 286.064a5.819 5.819 0 0 0 0 8.23l15.433 15.433c5.559 5.289 13.524-2.663 8.231-8.23l-15.433-15.433a5.82 5.82 0 0 0-8.231 0zM166.663 121.442l-15.433 15.433c-5.288 5.56 2.665 13.523 8.232 8.23l15.438-15.433c5.283-5.558-2.669-13.525-8.237-8.23zM169.452 183.894l-15.434 15.433a5.82 5.82 0 1 0 8.231 8.23l15.434-15.433c5.287-5.558-2.662-13.524-8.231-8.23zM257.205 39.131a5.819 5.819 0 0 0-8.231 0l-15.433 15.433c-3.709 3.457-.865 10.113 4.116 9.935a5.8 5.8 0 0 0 4.115-1.7l11.318-11.322 224.447 224.447-24.39 24.388-195.942-195.94a5.817 5.817 0 0 0-8.231 0l-12.645 12.645a5.82 5.82 0 1 0 8.231 8.23l8.53-8.529 195.941 195.941a5.821 5.821 0 0 0 8.232 0l32.62-32.62a5.854 5.854 0 0 0 0-8.23zM276.255 462.934c-7.613.151-7.722 11.45 0 11.64h82.9a51.74 51.74 0 0 0 51.681-51.682V300.441c-.19-7.609-11.42-7.738-11.64 0v122.451a40.087 40.087 0 0 1-40.041 40.042h-52.24V356.586a54.012 54.012 0 0 0-22.3-43.628 5.82 5.82 0 1 0-6.825 9.43 42.338 42.338 0 0 1 17.481 34.2v106.346zM229.809 468.754a5.82 5.82 0 0 0 5.82 5.82h11.64c7.673-.194 7.678-11.446 0-11.64h-11.64a5.82 5.82 0 0 0-5.82 5.82z" style="fill:#ff7b69"/></svg>